<?xml version="1.0" encoding="utf-8"?>
<!-- Generator: Adobe Illustrator 23.0.0, SVG Export Plug-In . SVG Version: 6.00 Build 0)  -->
<svg version="1.1" id="Layer_1" xmlns="http://www.w3.org/2000/svg" xmlns:xlink="http://www.w3.org/1999/xlink" x="0px" y="0px"
	 viewBox="0 0 100 100" style="enable-background:new 0 0 100 100;" xml:space="preserve">
<style type="text/css">
	.st0{fill:#1B75BB;}
</style>
<g>
	<path class="st0" d="M50,12.1c-10.5,0-19,8.6-19,19c0,3.6,1,7.1,2.9,10.1L50,66.9l16.1-25.7c1.9-3,2.9-6.5,2.9-10.1
		C69,20.6,60.5,12.1,50,12.1z M50,43c-6.5,0-11.9-5.3-11.9-11.9S43.4,19.2,50,19.2s11.9,5.3,11.9,11.9S56.5,43,50,43z"/>
	<path class="st0" d="M41.3,87.9h17.5c1,0,1.6-0.8,1.6-1.7L59,74.3c-0.1-0.7-0.7-1.3-1.6-1.3H42.5c-0.7,0-1.4,0.6-1.6,1.3l-1.3,11.9
		C39.6,87.1,40.4,87.9,41.3,87.9z"/>
	<path class="st0" d="M42.7,70.6h4.9c0.6,0,1.1-0.7,0.7-1.2l-4.1-6.5c-0.4-0.6-1.4-0.5-1.4,0.4l-0.8,6.5
		C41.8,70.2,42.2,70.6,42.7,70.6z"/>
	<path class="st0" d="M62.6,70.6h15.3c1.1,0,1.9-1.2,1.3-2.2l-4.8-9.8c-0.2-0.5-0.8-0.8-1.3-0.8H61.3c-1,0-1.7,0.8-1.6,1.7l1.2,9.8
		C61.2,70.1,61.8,70.6,62.6,70.6z"/>
	<path class="st0" d="M22.1,70.6h15.3c0.7,0,1.4-0.6,1.6-1.3l1.2-9.8c0.1-1-0.6-1.7-1.6-1.7H26.9c-0.6,0-1.1,0.4-1.3,0.8l-4.8,9.8
		C20.3,69.4,21,70.6,22.1,70.6z"/>
	<path class="st0" d="M52.2,70.6h5.3c0.4,0,0.7-0.4,0.6-0.7l-0.8-7c-0.1-0.6-0.8-0.7-1.2-0.2l-4.5,7C51.3,70.1,51.7,70.6,52.2,70.6z
		"/>
	<path class="st0" d="M36.4,73H19.9c-0.6,0-1.2,0.4-1.4,1l-4.2,11.9c-0.4,1,0.4,2,1.4,2h19.5c0.7,0,1.4-0.6,1.6-1.3l1.3-11.9
		C38.1,73.7,37.4,73,36.4,73z"/>
	<path class="st0" d="M80.1,73H63.5c-1,0-1.6,0.8-1.6,1.7l1.3,11.9c0.1,0.7,0.7,1.3,1.6,1.3h19.5c1.1,0,1.8-1.1,1.4-2L81.6,74
		C81.3,73.4,80.8,73,80.1,73z"/>
	<path class="st0" d="M50,25.7c-3,0-5.4,2.4-5.4,5.4s2.4,5.4,5.4,5.4s5.4-2.4,5.4-5.4S53,25.7,50,25.7z"/>
</g>
</svg>
